<svg width="21" height="20" viewBox="0 0 21 20" fill="none" xmlns="http://www.w3.org/2000/svg">
<path fill-rule="evenodd" clip-rule="evenodd" d="M8.05326 14.7699C7.91542 14.6266 7.84011 14.4345 7.84386 14.2357C7.84761 14.037 7.93012 13.8478 8.07326 13.7099L12.0113 9.99989L8.07326 6.28989C7.99891 6.22245 7.93886 6.14077 7.89666 6.0497C7.85446 5.95863 7.83097 5.86002 7.82758 5.7597C7.82419 5.65939 7.84097 5.55941 7.87693 5.4657C7.91288 5.37199 7.96728 5.28644 8.03691 5.21414C8.10653 5.14184 8.18996 5.08425 8.28225 5.04479C8.37454 5.00532 8.47381 4.98478 8.57418 4.98438C8.67455 4.98398 8.77398 5.00374 8.86658 5.04247C8.95918 5.08121 9.04306 5.13814 9.11326 5.20989L13.6133 9.45989C13.6858 9.52985 13.7436 9.61373 13.783 9.70651C13.8224 9.79929 13.8428 9.89907 13.8428 9.99989C13.8428 10.1007 13.8224 10.2005 13.783 10.2933C13.7436 10.386 13.6858 10.4699 13.6133 10.5399L9.11326 14.7899C8.97 14.9277 8.77788 15.003 8.57912 14.9993C8.38035 14.9955 8.19121 14.913 8.05326 14.7699Z" fill="white"/>
</svg>
