<svg width="20" height="20" viewBox="0 0 20 20" fill="none" xmlns="http://www.w3.org/2000/svg">
<path fill-rule="evenodd" clip-rule="evenodd" d="M7.21048 14.77C7.07265 14.6267 6.99734 14.4346 7.00109 14.2359C7.00484 14.0371 7.08735 13.848 7.23048 13.71L11.1685 10L7.23048 6.29001C7.15614 6.22257 7.09608 6.1409 7.05388 6.04983C7.01168 5.95875 6.98819 5.86014 6.9848 5.75982C6.98141 5.65951 6.99819 5.55953 7.03415 5.46582C7.07011 5.37211 7.12451 5.28657 7.19413 5.21427C7.26376 5.14196 7.34719 5.08437 7.43947 5.04491C7.53176 5.00544 7.63103 4.9849 7.73141 4.9845C7.83178 4.98411 7.93121 5.00386 8.02381 5.0426C8.11641 5.08133 8.20029 5.13826 8.27048 5.21001L12.7705 9.46001C12.8431 9.52997 12.9008 9.61385 12.9402 9.70663C12.9797 9.79941 13 9.89919 13 10C13 10.1008 12.9797 10.2006 12.9402 10.2934C12.9008 10.3862 12.8431 10.47 12.7705 10.54L8.27048 14.79C8.12722 14.9278 7.9351 15.0032 7.73634 14.9994C7.53758 14.9957 7.34844 14.9131 7.21048 14.77Z" fill="white"/>
</svg>
