<svg width="21" height="20" viewBox="0 0 21 20" fill="none" xmlns="http://www.w3.org/2000/svg">
<path fill-rule="evenodd" clip-rule="evenodd" d="M8.04349 14.7699C7.90566 14.6266 7.83034 14.4345 7.83409 14.2357C7.83784 14.037 7.92035 13.8478 8.06349 13.7099L12.0015 9.99989L8.06349 6.28989C7.98914 6.22245 7.92909 6.14077 7.88689 6.0497C7.84469 5.95863 7.8212 5.86002 7.81781 5.7597C7.81442 5.65939 7.8312 5.55941 7.86716 5.4657C7.90312 5.37199 7.95752 5.28644 8.02714 5.21414C8.09677 5.14184 8.18019 5.08425 8.27248 5.04479C8.36477 5.00532 8.46404 4.98478 8.56442 4.98438C8.66479 4.98398 8.76422 5.00374 8.85682 5.04247C8.94942 5.08121 9.0333 5.13814 9.10349 5.20989L13.6035 9.45989C13.6761 9.52985 13.7338 9.61373 13.7732 9.70651C13.8127 9.79929 13.833 9.89907 13.833 9.99989C13.833 10.1007 13.8127 10.2005 13.7732 10.2933C13.7338 10.386 13.6761 10.4699 13.6035 10.5399L9.10349 14.7899C8.96023 14.9277 8.76811 15.003 8.56935 14.9993C8.37059 14.9955 8.18145 14.913 8.04349 14.7699Z" fill="white"/>
</svg>
