<svg width="18" height="20" viewBox="0 0 18 20" fill="none" xmlns="http://www.w3.org/2000/svg">
<path fill-rule="evenodd" clip-rule="evenodd" d="M14.7858 5.83356C14.9517 5.99955 15.045 6.22466 15.045 6.45937C15.045 6.69408 14.9517 6.91918 14.7858 7.08517L7.70584 14.1664C7.53987 14.3324 7.31481 14.4256 7.08014 14.4256C6.84547 14.4256 6.62041 14.3324 6.45445 14.1664L2.91445 10.6258C2.75324 10.4589 2.66403 10.2353 2.66605 10.0032C2.66807 9.77109 2.76114 9.54908 2.92523 9.38497C3.08931 9.22085 3.31128 9.12776 3.54333 9.12574C3.77537 9.12373 3.99892 9.21295 4.16584 9.37418L7.08014 12.289L13.5344 5.83356C13.7004 5.66762 13.9255 5.5744 14.1601 5.5744C14.3948 5.5744 14.6199 5.66762 14.7858 5.83356Z" fill="#4F46E5"/>
</svg>
